<svg width="14" height="14" viewBox="0 0 25 25" fill="none" xmlns="http://www.w3.org/2000/svg">
            <path d="M24.6094 12.125C24.6094 18.8145 19.1406 24.2344 12.5 24.2344C5.81055 24.2344 0.390625 18.8145 0.390625 12.125C0.390625 5.48438 5.81055 0.015625 12.5 0.015625C19.1406 0.015625 24.6094 5.48438 24.6094 12.125ZM11.084 18.5703L20.0684 9.58594C20.3613 9.29297 20.3613 8.75586 20.0684 8.46289L18.9453 7.38867C18.6523 7.04688 18.1641 7.04688 17.8711 7.38867L10.5469 14.7129L7.08008 11.2949C6.78711 10.9531 6.29883 10.9531 6.00586 11.2949L4.88281 12.3691C4.58984 12.6621 4.58984 13.1992 4.88281 13.4922L9.96094 18.5703C10.2539 18.8633 10.791 18.8633 11.084 18.5703Z" fill="#F55F1D" />
        </svg>